{"title":"The.Legend.Of.The.Drunken.Master.1994.1080p.DTS.AC3.x264.iSAAC","uid":10625727,"size":8694711242,"categoryP":"video","categoryS":"hd___movies","magnet":"?xt=urn:btih:120e6c3136e2d6e8cbbcc8f24a6d877dbbedc37a&amp;dn=The.Legend.Of.The.Drunken.Master.1994.1080p.DTS.AC3.x264.iSAAC&amp;tr=udp%3A%2F%2Ftracker.openbittorrent.com%3A80&amp;tr=udp%3A%2F%2Fopen.demonii.com%3A1337&amp;tr=udp%3A%2F%2Ftracker.coppersurfer.tk%3A6969&amp;tr=udp%3A%2F%2Fexodus.desync.com%3A6969","seeders":4,"leechers":1,"uploader":"Isaac09","files":-1,"time":1406226363,"description":"The.Legend.Of.The.Drunken.Master.1994.1080p.DTS.AC3.x264.iSAAC\n\nDirector: Chia-Liang Liu\nWriters:  Edward Tang, Man-Ming Tong, Gai Chi Yuen\nStars:    Jackie Chan, Lung Ti, Aniti Mui, &amp; Felix Wong\n   &lt;a href=&quot;\nhttp://www.imdb.com/title/tt0111512&quot; rel=&quot;nofollow&quot; target=&quot;_NEW&quot;&gt;\nhttp://www.imdb.com/title/tt0111512&lt;/a&gt;\n\nA young martial artist is caught between respecting his pacifist father's wishes or stopping a group of disrespectful foreigners from stealing precious artifacts.\n\nRUNTIME.......: 1h 42mn\nVIDEO CODEC...: x264, High @4.1\nFRAMERATE.....: 23.976 fps\nBITRATE.......: 11.7 Mbps\nRESOLUTION....: 1920x824\nSOURCE........: Combined 2 Sources to make a DTS &amp; Cantonese audio version.\nGENRE.........: Action, Comedy\n\nAUDIO 1.......: Chinese AC3 @ 192Kbps\nAUDIO 2.......: English DTS 5.1 @ 1509 Kbps\nSUBTITLES.....: English, Russian, Czech, French, Polish, Portuguese, Spanish, Turkish\n\n\nGeneral\nUnique ID                                : 178509165214795157698102165793143564992 (0x864B9D5A95DFE0EAB4B23C497A4CAAC0)\nComplete name                            : J:Cinema5The Legend Of The Drunken MasterThe Legend Of The Drunken Master.mkv\nFormat                                   : Matroska\nFormat version                           : Version 4 / Version 2\nFile size                                : 8.10 GiB\nDuration                                 : 1h 42mn\nOverall bit rate                         : 11.3 Mbps\nMovie name                               : ~Sahaa~\nEncoded date                             : UTC 2014-07-21 14:07:21\nWriting application                      : mkvmerge v6.9.1 ('Blue Panther') 64bit built on Apr 18 2014 18:23:38\nWriting library                          : libebml v1.3.0 + libmatroska v1.4.1\n\nVideo\nID                                       : 9\nFormat                                   : AVC\nFormat/Info                              : Advanced Video Codec\nFormat profile                           : &lt;a class=&quot;__cf_email__&quot; href=&quot;/cdn-cgi/l/email-protection&quot; data-cfemail=&quot;3078595758707c041e01&quot;&gt;[email&amp;#160;protected]&lt;/a&gt;&lt;script cf-hash='f9e31' type=&quot;text/javascript&quot;&gt;\n/* &lt;![CDATA[ */!function(){try{var t=&quot;currentScript&quot;in document?document.currentScript:function(){for(var t=document.getElementsByTagName(&quot;script&quot;),e=t.length;e--;)if(t[e].getAttribute(&quot;cf-hash&quot;))return t[e]}();if(t&amp;&amp;t.previousSibling){var e,r,n,i,c=t.previousSibling,a=c.getAttribute(&quot;data-cfemail&quot;);if(a){for(e=&quot;&quot;,r=parseInt(a.substr(0,2),16),n=2;a.length-n;n+=2)i=parseInt(a.substr(n,2),16)^r,e+=String.fromCharCode(i);e=document.createTextNode(e),c.parentNode.replaceChild(e,c)}}}catch(u){}}();/* ]]&gt; */&lt;/script&gt;\nFormat settings, CABAC                   : Yes\nFormat settings, ReFrames                : 5 frames\nCodec ID                                 : V_MPEG4/ISO/AVC\nDuration                                 : 1h 42mn\nBit rate                                 : 9 605 Kbps\nWidth                                    : 1 920 pixels\nHeight                                   : 824 pixels\nDisplay aspect ratio                     : 2.35:1\nFrame rate mode                          : Constant\nFrame rate                               : 23.976 fps\nColor space                              : YUV\nChroma subsampling                       : 4:2:0\nBit depth                                : 8 bits\nScan type                                : Progressive\nBits/(Pixel*Frame)                       : 0.253\nStream size                              : 6.72 GiB (83%)\nWriting library                          : x264 core 72 r1235 448b138\nEncoding settings                        : cabac=1 / ref=5 / deblock=1:0:0 / analyse=0x3:0x113 / me=umh / subme=7 / psy=1 / psy_rd=1.0:0.0 / mixed_ref=1 / me_range=16 / chroma_me=1 / trellis=1 / 8x8dct=1 / cqm=2 / deadzone=21,11 / chroma_qp_offset=-2 / threads=6 / nr=0 / decimate=1 / mbaff=0 / bframes=3 / b_pyramid=0 / b_adapt=1 / b_bias=0 / direct=1 / wpredb=1 / keyint=250 / keyint_min=25 / scenecut=40 / rc_lookahead=40 / rc=2pass / mbtree=1 / bitrate=9605 / ratetol=1.0 / qcomp=0.60 / qpmin=10 / qpmax=51 / qpstep=4 / cplxblur=20.0 / qblur=0.5 / ip_ratio=1.40 / aq=1:1.00\nLanguage                                 : English\nDefault                                  : Yes\nForced                                   : No\n\nAudio #1\nID                                       : 1\nFormat                                   : AC-3\nFormat/Info                              : Audio Coding 3\nMode extension                           : CM (complete main)\nFormat settings, Endianness              : Big\nCodec ID                                 : A_AC3\nDuration                                 : 1h 42mn\nBit rate mode                            : Constant\nBit rate                                 : 192 Kbps\nChannel(s)                               : 2 channels\nChannel positions                        : Front: L R\nSampling rate                            : 48.0 KHz\nBit depth                                : 16 bits\nCompression mode                         : Lossy\nStream size                              : 141 MiB (2%)\nTitle                                    : Mono DD @ 192kbps\nLanguage                                 : Chinese\nDefault                                  : Yes\nForced                                   : No\n\nAudio #2\nID                                       : 10\nFormat                                   : DTS\nFormat/Info                              : Digital Theater Systems\nMode                                     : 16\nFormat settings, Endianness              : Big\nCodec ID                                 : A_DTS\nDuration                                 : 1h 42mn\nBit rate mode                            : Constant\nBit rate                                 : 1 509 Kbps\nChannel(s)                               : 6 channels\nChannel positions                        : Front: L C R, Side: L R, LFE\nSampling rate                            : 48.0 KHz\nBit depth                                : 24 bits\nCompression mode                         : Lossy\nStream size                              : 1.08 GiB (13%)\nLanguage                                 : English\nDefault                                  : No\nForced                                   : No\n\nText #1\nID                                       : 2\nFormat                                   : UTF-8\nCodec ID                                 : S_TEXT/UTF8\nCodec ID/Info                            : UTF-8 Plain Text\nLanguage                                 : English\nDefault                                  : Yes\nForced                                   : No\n\nText #2\nID                                       : 3\nFormat                                   : UTF-8\nCodec ID                                 : S_TEXT/UTF8\nCodec ID/Info                            : UTF-8 Plain Text\nLanguage                                 : Czech\nDefault                                  : No\nForced                                   : No\n\nText #3\nID                                       : 4\nFormat                                   : UTF-8\nCodec ID                                 : S_TEXT/UTF8\nCodec ID/Info                            : UTF-8 Plain Text\nLanguage                                 : French\nDefault                                  : No\nForced                                   : No\n\nText #4\nID                                       : 5\nFormat                                   : UTF-8\nCodec ID                                 : S_TEXT/UTF8\nCodec ID/Info                            : UTF-8 Plain Text\nLanguage                                 : Polish\nDefault                                  : No\nForced                                   : No\n\nText #5\nID                                       : 6\nFormat                                   : UTF-8\nCodec ID                                 : S_TEXT/UTF8\nCodec ID/Info                            : UTF-8 Plain Text\nLanguage                                 : Portuguese\nDefault                                  : No\nForced                                   : No\n\nText #6\nID                                       : 7\nFormat                                   : UTF-8\nCodec ID                                 : S_TEXT/UTF8\nCodec ID/Info                            : UTF-8 Plain Text\nLanguage                                 : Spanish\nDefault                                  : No\nForced                                   : No\n\nText #7\nID                                       : 8\nFormat                                   : UTF-8\nCodec ID                                 : S_TEXT/UTF8\nCodec ID/Info                            : UTF-8 Plain Text\nLanguage                                 : Turkish\nDefault                                  : No\nForced                                   : No\n\n","torrent":{"xt":"urn:btih:120e6c3136e2d6e8cbbcc8f24a6d877dbbedc37a","amp;dn":"The.Legend.Of.The.Drunken.Master.1994.1080p.DTS.AC3.x264.iSAAC","amp;tr":["udp%3A%2F%2Ftracker.openbittorrent.com%3A80","udp%3A%2F%2Fopen.demonii.com%3A1337","udp%3A%2F%2Ftracker.coppersurfer.tk%3A6969","udp%3A%2F%2Fexodus.desync.com%3A6969"],"infoHash":"120e6c3136e2d6e8cbbcc8f24a6d877dbbedc37a","infoHashBuffer":{"type":"Buffer","data":[18,14,108,49,54,226,214,232,203,188,200,242,74,109,135,125,187,237,195,122]},"announce":[],"urlList":[]}}